<svg id="logo_poblana_segura_superior" xmlns="http://www.w3.org/2000/svg" xmlns:xlink="http://www.w3.org/1999/xlink" width="221.769" height="55.76" viewBox="0 0 221.769 55.76">
  <defs>
    <linearGradient id="linear-gradient" y1="0.5" x2="1" y2="0.5" gradientUnits="objectBoundingBox">
      <stop offset="0" stop-color="#5f2d4f"/>
      <stop offset="0.141" stop-color="#642e53"/>
      <stop offset="0.31" stop-color="#723461"/>
      <stop offset="0.49" stop-color="#8a3d78"/>
      <stop offset="0.58" stop-color="#964468"/>
      <stop offset="0.749" stop-color="#b65841"/>
      <stop offset="0.988" stop-color="#ea7802"/>
      <stop offset="1" stop-color="#ec7a00"/>
    </linearGradient>
  </defs>
  <g id="_2071667375088" transform="translate(0 0)">
    <g id="Grupo_6959" data-name="Grupo 6959" transform="translate(133.523 18.911)">
      <path id="Trazado_12323" data-name="Trazado 12323" d="M107.264,20.434a39.333,39.333,0,0,0-6.607,1.548A8.736,8.736,0,0,0,96.9,19.859c-1.372-.487-.723-1.18.339-1.976.147-.457.678-.531.914-.914,1.445-.723,1.593-1.357,3.525-1.548a2.1,2.1,0,0,1,1.18.029c.118,0,.118-.1.265-.074.457.074,1.254.5,1.563-.029-.044-.088-.31-.162-.147-.236-.074,0-.074,0-.118-.044.074-.029-.074-.147.074-.221a4.408,4.408,0,0,0-2.728-1.475c.029,0,.074,0,.074-.044-2.669-.383-5.1,1.563-6.769,3.274,0,.029-.044.1-.044.147-.177.074-.177.339-.339.487,0,.044.074,0,.044.088a2.514,2.514,0,0,0-.31,1.519c.044.029.118.029.118.074a3.326,3.326,0,0,0,2.315,2.655c.044,0,.044-.029.074-.029a13.168,13.168,0,0,1,2.33.988,15.31,15.31,0,0,0-6.813,3.79c-.487.31.118.265-.413.531-.044.265-.265.354-.457.457,0-.074.118-.074.118-.192a2.9,2.9,0,0,0-1.062,2.138c-.088.029-.044.221-.088.339a13.283,13.283,0,0,0,.088,1.829c.442.988.826,2.124,2.124,2.345,0,.118.147.088.118.236a5.37,5.37,0,0,0,2.964-.074v-.074c.074,0,.1.029.147.029,2.728-1.784,5.162-4.174,6.194-7.064a3.7,3.7,0,0,0-.118-2.743c-.265-.147-.192-.56-.413-.752.192-.074.339-.236.6-.236v-.074c.265-.044.841-.383.959-.31.487-.147.8-.752,1.4-.8.221-.221.8-.029.944-.295a3.823,3.823,0,0,1-1.254.147c0-.044,0-.044.044-.074a18.672,18.672,0,0,0,1.976-.383c.147-.265.457-.339.678-.487a1.917,1.917,0,0,1-.649,0c.088-.044.354,0,.383-.118h-.074a1.667,1.667,0,0,1-.383,0C106.585,20.552,107.116,20.729,107.264,20.434Zm-9.379,8.509c-.074,0-.162,0-.162.044,0-.162.236-.265.31-.383-.487.221-.752.944-1.327,1.18v.147l-1.637,1.327c.074.044,0,.162.044.192-.236,0-.192.118-.354.147,0-.074.088-.147.118-.177-1.829.531-2.817,1.136-3.112.487-.044-.31.029-.649-.044-.944.118-2.02,1.327-3.23,2.551-4.306.531-.678,2.389-1.475,3.377-1.976.044.044,0,.044,0,.088a19.29,19.29,0,0,1,2.861-1.15c-.118,3.23-1.416,3.613-2.625,5.324ZM98.9,28.53c-.074,0-.074.029-.1.029v.192c-.383.162-.428.649-.841.767-.074.295-.074.192-.236.192,0,.029,0,.074.044.074-.413.383-.678.914-1.18,1.209v.074c-.074-.1-.118.088-.192.088-.029.074.074.029.044.1-.236.044-.236.236-.428.265,0,.044.044,0,.088,0a.647.647,0,0,1-.428.31c-.147.339-.531.265-.723.6-.074,0-.074-.074-.192-.029,0,.029.162-.044.118.074-.147,0-.339.192-.413.1,0,.088-.074.088-.118.162-.147-.044-.265.074-.339,0a.684.684,0,0,1-.147.147.05.05,0,0,1-.088-.029c.265-.31.959-.428,1.15-.841-.074,0-.044.074-.162.074.044-.118.162-.147.192-.265,0,.044.044.044.074.044,0,.074-.074.074-.029.147.221-.074.31-.265.487-.339,0-.044-.177,0-.1-.118.029.118.1.029.074-.074.339-.044.723-.265.723-.457.118-.044.265-.074.221-.236a8.879,8.879,0,0,0,1.445-1.327c0-.118.074-.118.074-.221.428-.236.649-.649.988-.959.044,0,.044.044.118,0-.029.074-.118.162-.118.236Zm3.318-6.459c-.088-.044-.236.029-.265-.044-.044,0,.029.044,0,.118-.162,0-.162-.118-.28-.118.044.044.044.074.088.074a3.417,3.417,0,0,1-.959.118c1.224-.31,3.156-1.18,4.454-1.445a21.143,21.143,0,0,0-3.038,1.3h0Zm-5.1,1.445c.383-.088.6-.354.988-.354-.074.192-.457.162-.487.383-.074,0-.192,0-.192.074-.074,0-.074,0-.074-.029-.074,0-.074.147-.236.1v-.177Zm-4.7,9.04a10.438,10.438,0,0,0,1.327-.074A1.677,1.677,0,0,1,92.413,32.556Zm6.754-9.733c-.1.044-.295.265-.413.118-.074.029.044.074-.044.118-.1-.088-.177.074-.265.1-.1,0-.074-.1-.221-.074A3.535,3.535,0,0,1,99.167,22.823ZM94.2,31.981c-.074-.192.295-.147.339-.339.074-.044.118,0,.147-.044.044,0,.044.088.044.118-.192-.029-.192,0-.265.192-.074,0-.265-.029-.265.074h0Zm5.471-4.513c-.044-.162.074-.162.118-.265,0-.044.029.029,0,.029,0,.044.029.044.074.044-.074.074-.074.147-.192.192Zm-.575.8c-.074,0-.074-.074-.074-.118.074-.044.074-.074.147-.074.044.118-.074.074-.074.192Zm-3.879,3.156c-.074,0-.074-.088-.074-.118.044-.044.118,0,.162-.074C95.377,31.3,95.215,31.332,95.215,31.421Zm.236-.428c.074,0,.118,0,.147-.029C95.672,31.037,95.451,31.155,95.451,30.993Zm3.908-3.067c-.1-.044-.074-.118-.029-.162H99.4c0,.074-.044.074-.044.162Zm-3.716,2.994a.173.173,0,0,1,.192-.118C95.834,30.89,95.716,30.89,95.643,30.919Zm0-6.577-.162.118C95.451,24.416,95.525,24.313,95.643,24.342Zm-1.416,8.067c0,.074-.029.1-.1.1,0-.029.029-.074.029-.1Zm3.392-3.318v-.074h.1c-.029.044-.029.044-.029.074Zm-2.4,2.625c.044.118-.074.044-.074.162C95.112,31.834,95.141,31.716,95.215,31.716Zm4.144-9.04c.074,0,.074.029.074.118-.029-.088-.074-.044-.147-.044.044-.044.118,0,.074-.074Zm4.645-.87c-.074,0,.029-.088.074-.118C104.152,21.717,104,21.805,104,21.805Zm-4.38,5.81a.14.14,0,0,0-.1.029c-.088-.029.074-.029.074-.074v-.029C99.624,27.542,99.624,27.572,99.624,27.616Zm-5.309,4.675c.074,0,.074.029.074.074h-.044c-.029,0,0-.044-.029-.074Zm-1.224.8h-.074v-.044h.074Zm3.879-9.424H97v.029h-.074c0-.029.044-.029.044-.029Zm.383,5.693.029-.029h.044v.029h-.074Zm-2.36,1.976c0,.044-.044.044-.074.088h-.044C94.92,31.377,94.949,31.332,94.994,31.332Zm4.557-3.79c-.029-.044,0-.044.044,0ZM93.74,32.9a.029.029,0,0,0,.029-.029A.029.029,0,0,1,93.74,32.9Zm26.8-12.845c-.5.236-.914.678-1.416.767l.044.029c-.767.531-1.593,1.032-2.389,1.489a.228.228,0,0,0-.162-.044c.044,0,.044.118,0,.118,0-.044,0-.074-.074-.074-.044,0-.044.1-.147.074,0,.118.029.265-.118.192-.044-.044.074-.074,0-.118-.074.074-.118.147-.221.147a3.805,3.805,0,0,1,.9-.649c.044-.074-.029-.1.044-.147.044.147.383-.147.265-.221a8.952,8.952,0,0,1-1.4.826c-.118.31-.531.31-.8.531.265-.339.723-.487.988-.826a.115.115,0,0,1,.029.074c.118-.147.383-.383.531-.265.044-.074-.118-.044-.029-.147,1.254-.811,2.537-1.416,3.761-2.286a11.986,11.986,0,0,1-1.829.944c-.029-.1.118,0,.074-.147-.1,0-.147.147-.1.265-.575.31-1.15.693-1.711.988,0-.074.074-.147.1-.192-2.389,1.445-4.483,3.3-7.787,3.613a2.723,2.723,0,0,1-1.18-.192c-.575.162-1.593-.029-1.711-.723a5.851,5.851,0,0,1,.575-3.259c-.044-.192.029-.265.192-.31a4.471,4.471,0,0,0,3.156.221.11.11,0,0,1-.044-.1c.147-.044.339-.044.413-.162.236.044.575.118.457-.147a3.99,3.99,0,0,0,1.032-.31c0-.074-.118-.029-.074-.147.147-.118.265-.074.457-.147,0-.118-.044-.118-.044-.192.575-.6,1.372-.87,1.932-1.445a5.374,5.374,0,0,1,.811-1.18c.752-.914,1.475-1.327.531-2.581a3.184,3.184,0,0,0-.575-.6,4.339,4.339,0,0,0-1.976-.118c.074-.118-.074-.074-.044-.147a3.779,3.779,0,0,0-1.666.295c-.87.767-2.02,1.15-2.92,1.829-1.607,1.519-3.421,2.743-4,5.471.118.074,0-.147.118-.074a4.315,4.315,0,0,0,.265,2.315,6.462,6.462,0,0,0,1.283,2.212,6.328,6.328,0,0,0,3.082,1.519,7.013,7.013,0,0,1,1.593-.044,8.145,8.145,0,0,0,2.743-.649c0-.074,0-.147.074-.192.383.088.575-.147.914-.295a5.1,5.1,0,0,0,.87-.339c.074-.088.074-.236.147-.162v-.074c.236.044.236-.413.546-.295a10.5,10.5,0,0,1,1.165-1c-.029-.8.885-1.018,1.268-1.548-.088-.044-.044.074-.118.074v-.147a3.783,3.783,0,0,0,1.062-.693.24.24,0,0,0-.044-.265c.118-.1.118-.339.383-.221.192-.339.457-.5.649-.8-.192,0-.265.192-.457.192C120.035,20.242,120.463,20.36,120.536,20.051Zm-7.374-4.631a2.373,2.373,0,0,1,1.209-.428c.074.074-.147.192-.221.074l.1.162c-.029.074-.177.265-.221.118-.044,0,0,.147-.044.177-.074-.029-.221,0-.147.162,0,.074-.147,0-.147.029a.285.285,0,0,1-.31.31v-.118a.8.8,0,0,0-.265.5c-.147-.074-.265.1-.221.265-.162-.074-.074.074-.236.074v.118c.044-.044.074,0,.074-.088.088.044,0,.118,0,.192-.192-.074-.1.192-.265.074,0-.029,0-.074.044-.074-.044-.029-.074.044-.118-.029-.118.265-.383.192-.531.457a.9.9,0,0,0-.575.369,6.466,6.466,0,0,1-2.964.959c.162-.236.383-.31.457-.575.192-.118.428-.221.5-.457.192.044.192-.1.295-.147-.074-.118-.074.118-.221.044a12.014,12.014,0,0,1,1.784-1.342c.693-.295,1.106-.944,2.02-.826Zm2.345,8.436a5.862,5.862,0,0,1-1.888.678c-.088-.029-.088-.118-.162-.074a7.53,7.53,0,0,1,.988-.457c0-.074.044-.118.044-.192.118.044.118-.029.118-.118.074,0,.1.044.192.044,1.548-.988,3.141-1.932,4.7-2.89-1.18,1.18-2.728,1.947-4,3.008Zm-9.645-5.25c0-.118.044-.147.044-.265.177.044.221-.147.221-.265.31-.074.413-.383.6-.649.162.044.192-.074.31-.147-.044-.147.295-.31.457-.457-.044.074.029.118.1.118a.46.46,0,0,1-.074-.31c.619-.221.959-.914,1.607-.988.029-.074-.044-.118.029-.192a4.126,4.126,0,0,0,1.062-.56c.118,0,.118.074.162.029a.877.877,0,0,0,.029.192,2.148,2.148,0,0,0-.8.5,2.057,2.057,0,0,0-1.18.752.6.6,0,0,0-.383.236c-.074,0-.074-.044-.074-.118-.074-.044-.029.118-.1.074,0,.044.074,0,.1.044-.029.147-.265.1-.295.339-.088-.044-.088.029-.162.029-.029.162-.074.265-.265.265.044-.029.044-.029.044-.1a1.407,1.407,0,0,1-.6.6c0,.221-.192.295-.354.339-.074.265-.177.531-.487.531h0Zm8.17-1.784a2.217,2.217,0,0,1-1.666,1.372c.029-.118.147-.074.177-.192-.295.074-.369.339-.708.31.708-.619,1.666-.988,2.315-1.681,0-.074-.074,0-.162-.029.044-.044.118-.088.118-.192.192.029.118.074.265.029-.147.074-.147.339-.339.383Zm.678-1.209c-.147-.265.192-.383.354-.5-.088.118,0,.192.074.265-.192.074-.339.413-.5.413a.211.211,0,0,1,.044-.147c-.044,0-.074-.029-.118,0-.074.074.044-.118.147-.029Zm-4.026-1.032c.192.044.192-.074.31-.118,0,.192.147.074.118,0,.1.074-.088.074-.044.192-.265.044-.383.265-.6.413A1.2,1.2,0,0,1,110.685,14.579Zm5.973,7.064c-.265.118-.457.428-.8.5A1.354,1.354,0,0,1,116.658,21.643Zm-1.224.693c.118.029.118-.044.236,0H115.6c-.236.295-.575.369-.841.634C114.873,22.705,115.33,22.631,115.434,22.336Zm-2.655,2.433c.074-.162.221-.162.339-.265C113.192,24.652,112.927,24.77,112.779,24.77Zm6.769-3.952.413-.265C119.843,20.655,119.769,20.817,119.548,20.817Zm-4.911,2.153c0,.118-.221.192-.383.28A3.158,3.158,0,0,1,114.637,22.971Zm-3.761,2.478c0-.118.147,0,.147-.118.044,0,.088,0,.088.044,0,.118-.162.074-.236.074Zm1.593-.31c-.1.044-.1-.029-.147-.074.044-.029.118,0,.147-.029Zm3.392-2.964c-.044.088-.074.118-.162.118C115.7,22.218,115.788,22.174,115.861,22.174Zm-9.394-3.525s.074-.192.147-.192C106.615,18.576,106.511,18.576,106.467,18.65Zm10.869,2.463-.339.236C117.115,21.275,117.262,21.23,117.336,21.112Zm-8.966-5.471c.118-.029.074.147,0,.074Zm5.589,7.757c.029.029-.074.074-.074.118C113.767,23.428,113.915,23.428,113.959,23.4ZM112.4,17.042c.074.044,0,.162-.074.118C112.322,17.086,112.44,17.16,112.4,17.042Zm.87,6.813h-.074c0-.044,0-.044.044-.074h.029v.074Zm-.265-7.3v-.074c.044,0,.044.029.088.029v.044Zm-.177,7.4h.074V24h-.074Zm-8.259-3.23v.088h-.029v-.088Zm10.913,2.138h.029V22.9h-.029Zm-2.773-5.973c.029,0,0-.029-.044-.029C112.661,16.895,112.661,16.895,112.705,16.895Zm-2.36,3.569h.074c-.029.044-.074.044-.074,0Zm4.218-4.7c.044,0,.044,0,.044.029ZM117,21.348c-.044,0-.074.029-.118.029C116.923,21.378,116.953,21.348,117,21.348Z" transform="translate(-90.54 -12.608)" fill="#513b62"/>
      <path id="Trazado_12324" data-name="Trazado 12324" d="M127.837,19.356c-.767.383-2.669,1.209-3.348,1.475-.678.693-1.9.914-2.581,1.563-.044-.147-.162.044-.192.044a2.243,2.243,0,0,1,.487-1.445,34.1,34.1,0,0,0,1.15-3.392c.192-.295.192-.8.531-.988-.044-.339.295-.6.192-.826.1-.192.369-.5.265-.723a.344.344,0,0,0,.029-.339c-.192.074-.147-.192-.221-.236,0-.074.029-.147.029-.221-.029,0-.074-.088-.074-.192-.147.029-.118-.162-.118-.31.044-.147-.487-.413-.988-.575-.752-.265-.487-.1-.9.31a.728.728,0,0,0-.236.457h-.118a.486.486,0,0,1-.147.339,4.67,4.67,0,0,0-2.655-1.018c0,.029,0,.1-.074.074-.044,0-.044-.074-.118-.074a12.064,12.064,0,0,0-4,2.079,4.32,4.32,0,0,1-1.327,1.032,7.893,7.893,0,0,0-1.711,2.433c.044-.044.074,0,.074,0,0,.147-.1.118-.147.074a5.629,5.629,0,0,0-.413.988c.074.044.1-.074.147,0-.074.118-.236.31-.147.339-.088.044-.088.074-.118.074-.074-.029.029-.1-.044-.147a2.127,2.127,0,0,0-.295.723c.1.044.147-.118.192-.044-.118.118-.118.192-.192.383-.074,0-.074-.147-.074-.192-.088.044-.088.118-.088.192.044.044.088-.074.118,0a.09.09,0,0,0,0,.118c-.118,0-.118.147-.192.192-.074-.074.044-.118-.029-.147-.088.177-.383.634-.162.8a.818.818,0,0,1-.1.678h.074a4.791,4.791,0,0,0,1.091,2.507c.546.413.959.988,1.9.87a5.119,5.119,0,0,0,1.372-.752c-.074-.118.074-.118.118-.192.295-.044.944-.221,1.062-.6-.074-.044-.074.147-.118.029.236-.339.8-.457.841-.988,1.136-.988,1.784-2.433,3.038-3.377a.81.81,0,0,1,.383-.649c0,.118.074.074.074.118-.147-.044-.074.118-.147.147.074,0,.1.236.074.236-.147.074-.044-.088-.118-.088-.118.088.044.118.044.236-.118,0-.074.074-.162.074-.029.118.088.044.044.118-.147,0-.074.265-.221.295.074.192-.192.236-.044.383a2.086,2.086,0,0,0-.31,1.062c-.1.044-.074.044,0,.088-.192,0-.1.177-.074.295a.089.089,0,0,0-.118,0,1.282,1.282,0,0,1-.221.767c-.044.1.118.029.074.074a.077.077,0,0,0,0,.147h-.147c-.044.147.029.074.074.192-.31.074-.118.531-.31.678,0,.044.118-.029.088.088h-.088c-.074.457-.531.634-.87.87-1.283,1.18-2.728,2.2-3.908,3.421a.268.268,0,0,1-.044.192h-.147c0,.147-.074.192-.192.265,0,.074.029.029.074.074a.893.893,0,0,0-.339.265h-.044v.029c-.029.118-.074.162,0,.118-.147.074-.1.265-.295.31.029.192-.074.221-.236.221.044.118.162.118.192.236-.029-.044-.192-.118-.221-.044.029.044.074,0,.074.044-.162-.044-.074.1-.162.1s.044-.147-.029-.1-.265.147-.118.221c-.147-.029-.074.162-.265.118a27.174,27.174,0,0,0-2.846,3.952v.029c-.044,0-.044,0-.118.044a6.169,6.169,0,0,0-.841,1.947c-.074.029-.074,0-.1.029.074.118-.044.339-.162.383.044.118.044.147-.074.147,0,.074.044.118.044.236-.074.029-.044,0-.118,0A10.039,10.039,0,0,0,107.5,39.8a3.9,3.9,0,0,0,4.144,3.849c.074-.118.147.074.221-.088,1.18.088,1.829-.944,2.478-1.593-.044.074.044.044.118.044.487-.649,1.018-1.254,1.548-1.9.192-.339.265-.767.575-.988.339-1.106.944-2.124,1.327-3.274.147-.531.428-.988.6-1.548.31-.841.428-1.711.723-2.6a8.758,8.758,0,0,0,.31-1.062c.118,0,.044-.192.147-.192.31-1.548.693-3.038.959-4.631.221-.265.649-.457.8-.723h-.074c.074-.118-.044-.074-.074-.147.1-.192.487-.31.634-.457-.029,0-.029,0-.074.029.044-.074-.074,0-.074-.074.265,0,.5-.339.678-.383-.029.118-.295.192-.221.28l.383-.236c.029-.118-.162,0-.118-.118.413.118.649-.369,1.062-.457a1.618,1.618,0,0,1,.988-.487c-.029.029-.029.029-.074.029.6.044,1.209-.487,1.666-.826-.1,0-.221.192-.295.147a.259.259,0,0,1,.265-.221c.029-.088.029-.192-.074-.236.1-.118.339-.265.457-.147.295-.457,1.548-.531,1.136-1.254.118,0,.147-.074.192-.147a.575.575,0,0,0-.265-.236,49.238,49.238,0,0,0-6.194,3.3c-.044-.265.147-.339.147-.56a13.727,13.727,0,0,1,1.372-.841,27,27,0,0,1,3.716-1.784c.074-.162,1.254-.531,1.372-.649.31-.339.147-.31-.147-.265ZM111,42.038h.044a.108.108,0,0,1,.029.088H111v-.088c-.118.044-.192.118-.295.118,0-.029.029-.029.029-.074a5.657,5.657,0,0,1-.87.118,5.737,5.737,0,0,1-.6-2.138,9.32,9.32,0,0,1,.339-2.271c.265-.044.221-.383.413-.457.044-.339.339-.457.31-.841.265-.147.295-.487.457-.752.221.029.221-.192.192-.31.295-.192.295-.649.634-.8a1.992,1.992,0,0,1,.885-1.032v.074c.192,0,.147-.147.295-.147-.029.147.192-.118.265-.147v-.147c.162.029.044-.118.162-.118-.118-.118.147-.339.221-.5l-.413.383c0-.221.413-.339.339-.678.118,0,.074-.118.192-.074,0-.088.265-.354.295-.546.162.088.265-.074.192-.221.074.044,0-.074.074-.044,0-.029,0-.029-.029-.029,0-.044.074-.044.029-.118.236,0,.236-.413.619-.383-.074-.147.1-.413.413-.413-.074.044-.147.192-.265.221.044,0,.044.044.044.088-.088,0-.044.029-.118,0,.074.147-.074.1-.074.192.074.029.221-.118.265-.192.1-.088.029.1.147.074.074-.044,0-.162-.074-.118-.044-.074.118-.044.074-.147.192-.074.31-.162.31-.383.192.044.192-.192.265-.31a.61.61,0,0,0-.236.162,4.833,4.833,0,0,1,1.062-1.062c-.147.221-.413.369-.6.6a1.91,1.91,0,0,0,.767-.649.227.227,0,0,0,.221-.118c.074-.029.044.044.118.044.118-.074.192-.192.383-.236-.044-.221.147-.265.295-.339,0,.074-.029.118,0,.192.044-.044,0-.118.118-.074-.044.029.044.074,0,.118-.118,0-.074.029-.147,0a.9.9,0,0,0,0,.487c-.118-.029-.074.118-.236.074,0,.074.044.074.118.074l-.147.118c.029.074.074-.029.147-.029-.118.029-.044.265-.221.221a1.044,1.044,0,0,1,.074.649c-.118.029-.074-.118-.192-.044-.074.044.074.074.029.162-.074,0-.029-.088-.147-.044,0,.074.118.044.147.074,0,.074-.029.074-.029.192-.074.044-.044-.074-.162-.074-.1.118.044.118.088.192-.192-.044-.162.147-.192.221.029,0,.1,0,.1-.074.044,0,0,.147-.029.147-.044.044-.044,0-.044-.029-.029.029-.029.074-.1.074.1.192-.044.383,0,.649-.088-.044-.118,0-.192.029.029.074.1.236-.074.236,0,.118.147.118.221.147-.074.044-.221.044-.221.236.029.074.074-.044.1,0,.044.074-.074.029-.029.147-.074,0,0-.147-.074-.118-.044.074-.088.147-.044.236-.118.029-.192.029-.147.177.029,0,.029-.029.029-.1.118.029,0,.192-.1.147.074.118.029.147.029.383-.074.029-.074-.044-.147,0,0,.074,0,.147-.074.192,0,.074.074.029.1.074-.029.029-.029.074-.029.147,0-.029.074-.029.074-.074.044-.044.044.147-.044.118,0-.044-.029-.044-.029-.044.029.118.074.192-.044.265-.029-.074.044-.074.044-.118-.118-.074-.192.118-.265.192.147,0,.074.118.1.236-.074-.118-.074.029-.177.029v.088c.029.074.1-.044.177,0a1.623,1.623,0,0,0-.531.56c.118,0,.044.074.088.192-.044.074-.236.044-.192.147,0,.088.029-.029.1,0,0,.044-.029.088-.029.118s.074,0,.074-.029a3.466,3.466,0,0,1-.457,1.136c0-.118-.044-.118-.074-.192-.074.044.118.192-.044.147,0,.074.162,0,.118.118-.044.044-.118.044-.118-.044l-.221.383c.074.074.118-.029.192,0-.192.457-.383.959-.6,1.416.177,0,.147-.383.369-.546.118.162-.1.192-.074.354.044-.044.118-.074.118-.192a.271.271,0,0,0,.265-.339c.383-.531.413-1.342.914-1.8-.044-.029-.118-.029-.074-.1.339-.619.487-1.416.826-2.02,0-.029-.074-.029-.029-.074.265-.413.221-1.062.56-1.445,0,.074,0,.192.044.236a12.46,12.46,0,0,0,.413-1.254c-.029-.088-.1.074-.192.029a1.55,1.55,0,0,1,0,.457c-.1,0-.1.044-.147.118-.147-.192.147-.6.192-.6.074-.088,0-.118,0-.236.074.044.118.118.192.118a.475.475,0,0,0,.029-.236h.162c0,.162-.074.236-.044.428a15.118,15.118,0,0,0-.914,2.89c-.295.339-.221,1.018-.6,1.357a.7.7,0,0,1-.265.649c0,.074.044.118.044.192h-.118c.074.074,0,.265-.118.339-.147.767-.649,1.489-.87,2.286-.265.192-.236.678-.575.826.074.162-.1.118-.074.236a.307.307,0,0,0-.192.044c.044-.118.162-.162.162-.31a.215.215,0,0,0-.118-.074.658.658,0,0,1-.044-.265v.029c-.383.236-.457.723-.841.959-.074.413-.487.56-.56,1.018-.118,0-.236.044-.192.192-.678.531-1.032,1.416-2.242,1.224-.044-.118.118-.044.147-.088a3.727,3.727,0,0,0,1.637-1.254,17.235,17.235,0,0,0,1.858-2.507.323.323,0,0,0,.192-.413c.118.074.192-.044.162-.192-.088-.029-.044.074-.088.118-.1-.147.118-.192.088-.339-.088-.044-.118.029-.088.147-.1-.044-.192.074-.221,0-.044.118.029.118.029.192-.074.029-.074-.074-.147-.074-.118.1-.221.192-.147.339-.147.029-.192.383-.265.265-.074.044-.044.221-.162.221.044.162-.295.354-.177.531-.383.236-.457.693-.841.914-.192.5-.649.8-.959,1.18-.029.074.088,0,.044.118-.044,0-.074-.044-.147-.044,0,.088.1,0,.074.088-.118.029-.118.029-.074.1-.118-.074-.192,0-.31.074Zm3.687-18.995c-.192,0-.147.192-.339.221,0-.192.221-.192.221-.369.044,0,.044.074.118.029.044-.074-.074,0-.074-.074.192.044.147-.221.265-.147v-.192c-.118.147-.383.147-.383.383-.457.221-.6.531-1.136.678-.044.147.074.074.118.147a5.167,5.167,0,0,1-1.032.457c.044-.118-.044-.074-.074-.118,0-.074,0-.074.074-.074a9.74,9.74,0,0,1,1.3-3.259c.265-.767.944-1.18,1.254-1.9,1.666-1.445,3.259-3.2,5.884-3.687,0,.147,0,.118.118.074.029.265-.339.147-.31.457.118-.147.044.118-.1.044-.044.221-.088.413-.265.442,0,.162-.118.236-.162.354-.029,0-.029-.044-.074-.044,0,.31-.221.413-.339.649-.044.029-.044,0-.074-.044-.074.044-.074.162-.162.192.118.044,0,.162-.029.236-.118-.044.074-.074.029-.192-.177.192-.413.457-.413.678-1.445,1.711-2.891,3.421-4.409,5.058h0Zm3.761,2.625c-.1.074-.029-.118-.147-.074,0,.634-.8.6-.944,1.165-.162,0-.162.162-.383.162-.457.56-1.224.87-1.593,1.475a3.009,3.009,0,0,0-.988.988c-.192,0-.192.265-.31.192.029.118-.074.147-.192.147a1.473,1.473,0,0,1-.6.811c-.118.177-.236.487-.428.531a8.671,8.671,0,0,1-1.622,1.9c-.088.413-.5.413-.531.944a6.718,6.718,0,0,0-1.15,1.784,4.113,4.113,0,0,0-.914,1.593c-.265.236-.192.723-.369,1.032,0,.118-.044.192-.044.265,0,.029-.044.029-.118.029.044.118.044.28,0,.31-.147-.118.044-.383,0-.575.044,0,0,.044.044.044s.029-.044.074-.044c0-.029-.074-.029-.118-.029a3.243,3.243,0,0,0,.074-.649c-.1.074-.029.265-.177.31.029-.5.295-.8.369-1.3a2.135,2.135,0,0,0,.383-.752,9.993,9.993,0,0,0,.841-1.445c.221-.044.265-.192.383-.31-.118-.147-.044-.044,0-.192.029,0,.029.044.029.074C110.7,33,111.6,32.127,112.322,31.1h.118c1.49-2.271,3.731-3.952,5.928-5.663,0,.074-.029.074-.029.118.074.044.074,0,.074-.044.074,0,.074.118.029.162Zm-.221-5.707c-.044.044-.044.074-.074.074.1.192-.265.383-.31.575-.118,0-.221-.044-.192.147-.029,0-.118,0-.118.044-.074-.044.044-.118-.029-.192.147-.044.147-.221.265-.265-.044-.074-.192-.044-.236.044a3.53,3.53,0,0,1,1.032-1.224c0,.118-.118.147-.118.265a.376.376,0,0,0,.236-.339.352.352,0,0,1,.1-.044c.088,0,0-.1.088-.147-.192,0-.118.192-.31.192.044-.118.118-.192.118-.31a26.381,26.381,0,0,0,1.637-2.271c.1-.118.265-.236.221-.457.339-.044.413-.723.8-.885-.074.088,0,.118-.029.236.074-.044,0-.147.147-.147a7.665,7.665,0,0,1-.575,1.475c-.531.457-.723,1.224-1.327,1.637,0,.044.044.044.044.118-.088,0-.088.1-.192.074a5.253,5.253,0,0,1-1.15,1.475c-.029,0-.029-.029-.029-.074h0Zm-5.132-2.537a.187.187,0,0,0,.192-.236.1.1,0,0,1,.074.074c0-.118.118-.118.074-.221.118.029.192,0,.192-.074.118.1-.192.147-.147.295.1-.147.295-.221.339-.413-.147.029.295-.192.265-.383a.483.483,0,0,0,.413-.339c.074,0,.192-.074.192.029,0-.074.118-.1.118-.221h.192c-.044-.192.265-.265.383-.413.1.147.029-.044.177-.044.044.074-.029.074-.074.118.118,0,.074-.074.192-.118-.029-.029-.118,0-.118-.029.088-.236.383-.28.5-.428.029.044.118.044.118.118.029,0,.029-.044.1-.044-.029-.029-.1,0-.1-.029.1-.192.678-.192.8-.428.029,0,.029.088.029.118a7.285,7.285,0,0,0-.826.649,12.867,12.867,0,0,0-3.348,2.728c-.074-.029.029-.1,0-.177-.044.029-.044.1-.044.177-.1,0-.147.044-.192.044.118-.265.383-.457.5-.752h0Zm9.232,5.619c1.711-.678,2.935-1.755,4.719-2.315-1.489.988-3.318,1.548-4.749,2.655-.354.074-.5.5-.885.457,0,.074-.147.265-.192.147C121.407,23.53,122.056,23.456,122.321,23.043Zm-8.48,17.638c-.029,0-.074,0-.074-.044l-.1.118c0,.029.029.029.074.029-.162.088-.118.265-.31.265.044.31-.383.236-.265.531a1.75,1.75,0,0,0-.383.5.479.479,0,0,0-.413.221c.029.044.029,0,.118,0-.044.044-.118.044-.088.162H112.1c0,.074.029.074.074.074-.044.029-.074,0-.192.029a.291.291,0,0,1,.265-.295c.044-.118-.029-.118-.074-.147a3.864,3.864,0,0,0,.678-.914c.265-.044.192-.31.457-.339,0,.074,0,.074-.074.074.192.074.265-.162.265-.31-.192.118.074-.339.236-.339a.964.964,0,0,0-.192.339.987.987,0,0,0,.295-.383c.088,0,.088.074.162.044a3.337,3.337,0,0,0-.162.383Zm6.12-22.092a1.212,1.212,0,0,0-.339.5c-.029-.044-.029-.074-.118-.074a1.081,1.081,0,0,1-.457.56c.383-.56.841-1.136,1.224-1.711.118,0,.074,0,.147-.029.044-.118-.074-.044-.029-.118a3.155,3.155,0,0,1,.413-.575c-.118.619-.649.914-.841,1.445ZM113.384,30.9a6.732,6.732,0,0,1,1.077-1.327c.029.457-.649.767-.8,1.224C113.546,30.8,113.5,30.9,113.384,30.9Zm4.572-.339c-.118-.029-.044-.118-.074-.192.1-.029.1-.147.074-.265-.118-.029-.044.118-.162.162-.029-.162.044-.162.088-.265a.14.14,0,0,0,.1.029l.118-.192c0-.118-.147-.029-.118-.192.31.074.118-.457.428-.487a10.382,10.382,0,0,1-.457,1.4ZM116.629,27.6c.221-.118.442-.487.634-.457a1.572,1.572,0,0,1,.649-.531A3.739,3.739,0,0,1,116.629,27.6Zm-1.372,1.18v-.044h.029l.088-.074h.029v-.029h.044v-.044h.029v-.029l.074-.088V28.44h.044V28.4h.044v-.029h.029v-.044h.044a3.3,3.3,0,0,0,.56-.457c-.074.31-.6.5-.723.841-.1.074-.265.029-.221.221-.044-.029-.074-.074-.118-.074h.074c0-.029,0-.029-.029-.074Zm-1.681-10.721c-.074.074-.029-.074-.1-.029a.455.455,0,0,0,.265-.5,1.286,1.286,0,0,0,.369-.147c.044.221-.295.383-.369.6-.074,0-.192-.029-.162.074h0Zm1.3-1.136c-.118,0-.147.147-.31.147a.71.71,0,0,1,.619-.487C115.183,16.775,114.829,16.7,114.874,16.923Zm11.09,5.162c-.074,0-.1.088-.177.118,0-.074-.044-.118-.118-.074,0,.118.118.044.118.147-.118.044-.236.044-.265.162-.118-.044-.162.029-.265.029,0,0,.029-.074,0-.1a.457.457,0,0,0,.265-.162c.074,0,.029.074.074.074.074,0,0-.1.029-.147a.584.584,0,0,1,.339-.044Zm-12.8,9.2a1.417,1.417,0,0,1-.531.6c.192-.147.221-.457.457-.634C113.089,31.287,113.119,31.287,113.163,31.287ZM115.4,36.08c.074-.236.118-.723.383-.841C115.67,35.5,115.523,35.77,115.4,36.08Zm-.383,1.136c-.192,0-.1.265-.221.339.029-.1.074-.56.295-.56-.074,0-.074.1-.074.221Zm2.817-7.492h.118c0,.088.029.236-.044.28C117.764,29.959,117.882,29.842,117.838,29.724Zm-4.719-11.356c0-.044,0,0,.044.044,0,.029.074,0,.118,0-.118.074-.074.221-.192.265,0-.118-.044-.236.029-.265Zm3.082,16c-.029-.044-.074-.044-.074-.074.074-.074.074-.192.147-.31.118.074-.074.236-.074.383Zm4.675-17.063c-.118-.074.074-.31.192-.383C121.068,17.114,120.876,17.114,120.876,17.306ZM112.75,18.9c.074.044.074,0,.147,0a.368.368,0,0,1-.31.221C112.588,19.017,112.78,19.046,112.75,18.9Zm6.194.944c-.044,0-.044.088-.118.044V19.74c.074,0,.074-.074.192-.044C118.944,19.7,118.944,19.769,118.944,19.843Zm5.545,2.787c-.074.029-.074-.044-.147.029,0-.074.147-.192.295-.192,0,.074-.192.044-.147.162Zm-11.179-4.5c.044.044.044.088.118.088-.044.029-.074.1-.147.147C113.163,18.294,113.355,18.221,113.31,18.132Zm11.754,4.675a.221.221,0,0,1,.029-.147c.074,0,.162,0,.162.074-.162,0-.088.118-.192.074Zm-11.827,8.259c.074-.044.074.147.118.029.029-.074,0,.044,0,.074-.044.044-.192-.029-.147.088-.118-.088.029-.118.029-.192Zm-1.976,2.315a.225.225,0,0,1,.236-.147C111.452,33.307,111.408,33.41,111.261,33.381Zm7.182-5.324c.044-.029.074,0,.118,0a.424.424,0,0,1,.044.236C118.516,28.249,118.516,28.131,118.443,28.057Zm-6.386-8.893c-.1-.044,0-.118-.029-.192h.1c.044.118-.1.074-.074.192Zm-.192,23.522a.141.141,0,0,1-.221-.074c.074,0,.147.147.118-.044.029.044.1.044.1.118Zm2.33-4.336v.088c-.118-.044-.044.1-.162.1,0-.029,0-.074.044-.074C113.959,38.439,114.107,38.4,114.2,38.351Zm2.345-5.663c.088-.029.088.192.044.192-.147,0,0-.1-.044-.192Zm-2.655,5.9c-.044-.044,0-.236.118-.236C114,38.513,113.886,38.469,113.886,38.587Zm-.147-9.306v.1c-.074,0-.162.044-.162-.074.088.044.088-.029.162-.029Zm-2.33-9.586c-.074.044-.029-.074-.029-.118.029,0,.029-.074.118-.029a.265.265,0,0,1-.088.147Zm1.077-1.283c-.088.029,0,.147-.118.147C112.322,18.442,112.367,18.412,112.485,18.412ZM112.9,33c.147,0,0,.147.044.192C112.824,33.145,112.942,33.071,112.9,33Zm-1.106-.221a.135.135,0,0,0,.118-.044c-.074.074-.074.192-.221.192,0-.074.147-.044.1-.147Zm6.548-3.657c-.044-.1.074-.074.029-.192C118.487,28.9,118.413,29.119,118.339,29.119Zm-5.825-10.825c.118.029.118-.074.192-.074,0,.074-.147.029-.074.192-.044-.044-.118-.044-.118-.118Zm1.873,20.779c-.044-.074-.118,0-.162,0,.044.088.044.088,0,.162.044-.074.074-.162.162-.162Zm1.254-22.829c-.088-.044.029-.118.074-.162C115.788,16.126,115.67,16.2,115.641,16.244Zm5.737-.354c-.074-.074.1-.1.074-.265C121.569,15.743,121.377,15.817,121.377,15.89ZM110.538,33.071c.118.074-.074.118-.029.192C110.39,33.233,110.538,33.145,110.538,33.071ZM117,31.552a.1.1,0,0,0-.074.074s0-.221.074-.221c0,.029,0,.074-.029.074,0,.044.029.044.029.074Zm1.681-7.447c.074-.044.074.044.1.074C118.782,24.223,118.634,24.223,118.679,24.1Zm-6.651,18.582c0-.029-.044-.074-.044-.074a.135.135,0,0,0,.118-.044v.118h-.074Zm3.879-7.669a.238.238,0,0,0-.088.192C115.818,35.092,115.788,35.018,115.906,35.018Zm6.489-11.031a.14.14,0,0,1-.029-.1h.1C122.469,23.957,122.395,23.913,122.395,23.987Zm-5.855,9.468h-.074v-.118h.044a.177.177,0,0,1,.029.118Zm.236-12.27c0-.088.074-.044.029-.118.162-.044.044.118-.029.118Zm-4.645-2.433c-.029.029,0,.1-.074.1v-.1Zm7.035,3.761c0-.074.074-.044.074-.074.044,0,0,.029.044.074Zm-6.946-3.657c-.044,0,0-.074-.044-.1C112.293,18.707,112.249,18.825,112.219,18.855Zm5.619,9.542a.1.1,0,0,1-.044-.074c.044,0,.118,0,.118-.029C117.985,28.323,117.838,28.367,117.838,28.4ZM115.4,30.269h-.074v-.088h.074Zm-1.445,9.984c-.029-.074.074-.029.044-.1C114.077,40.15,114,40.3,113.959,40.253ZM119.4,21.745c0-.029.029-.029.029-.074h.044c0,.044,0,.044.029.074Zm-8.48,12.211c.044.029-.044.029-.044.074C110.8,34.03,110.848,33.912,110.921,33.956Zm6.843-3.466c.029,0,.029.044.074.044,0,.029-.074.029-.118.029,0-.029.044-.029.044-.074Zm-7.226-7.978v-.074C110.612,22.365,110.612,22.542,110.538,22.512Zm7.492,4.1c-.044,0-.044,0-.044-.029v-.044c.044,0,.044-.044.118-.044-.044.044-.074.044-.074.118Zm5.4-3.259v-.088C123.5,23.19,123.5,23.382,123.427,23.353Zm-5.663,5.427h.074c.044.044-.044.044-.044.074-.029,0-.029-.029-.029-.074Zm-.575,3.156c0-.044.044-.044.044-.074C117.307,31.936,117.263,31.98,117.189,31.936ZM108,39.118c0-.044.074-.044.029-.118.044,0,.044.074.044.118Zm4.026-19.909v.029h-.044v.044h-.029v-.074h.074ZM117.5,29.886h-.044v-.118h.044ZM111.113,33.6h.118v.044h-.118ZM124.872,22.9v-.044c.029,0,.029,0,.074-.044V22.9h-.074Zm.988-.885c.029,0,.029,0,.074-.029v.074h-.074v-.044Zm-15.441,11.3c.044,0,0,.1-.029.1C110.346,33.337,110.42,33.337,110.42,33.307Zm15.544-11.252s.044-.044.044-.074C126.008,22.011,126.052,22.084,125.964,22.055Zm-4.395-6.533c0,.074-.088.029-.088.074C121.481,15.551,121.481,15.522,121.569,15.522ZM116.806,31.7h-.029v-.074h.029Zm.354-1.018h-.088v-.044h.088Zm-7.3,3.569c-.044,0-.044-.029-.074-.029C109.786,34.177,109.889,34.177,109.86,34.251Zm6.386-12.462v-.044h.074v.044Zm-.428-5.737h-.074v-.044h.074Zm-2.2,7.713v.074h-.044v-.074Zm3.731,6.577h-.044l-.044-.044h.088Zm-1.032,3.525v-.074h.044v.044Zm-1.858-16.606c-.044.044-.044.044-.074.044C114.343,17.262,114.416,17.262,114.461,17.262ZM118.1,29.384v.044s-.044,0-.044.029v-.074h.044Zm-8.893,5.545h-.074C109.166,34.9,109.211,34.856,109.211,34.929ZM117.5,20.462v0Z" transform="translate(-82.488 -12.71)" fill="#513b62"/>
      <path id="Trazado_12325" data-name="Trazado 12325" d="M137.1,19.956c0,.088,0,.118-.074.118,0-.029-.044-.074-.044-.118a2.189,2.189,0,0,0-.31.5h-.147a10.729,10.729,0,0,1-1.209,1.372c-.088.221-.162.457-.457.487.1.265-.619.959-.575,1.062,0-.029-.044-.029-.074-.029,0,.147-.118.147-.192.265-.074,0,0-.147-.074-.118-.118.044,0,.118,0,.192-.044.118-.265.074-.162.265-.147-.044-.074.074-.1.074,0-.029,0-.074-.044-.074-.118.339-.56.5-.6.8-.5.457-.87,1.032-1.563,1.254.118-.192.457-.192.5-.457a5.794,5.794,0,0,1-.988.575c.221.074.295-.147.457-.074-.192.265-.885.265-1.18.265,0-.236-.074-.693-.074-.767a15.175,15.175,0,0,1,.457-2.168c.029-.192,0-.8.1-.6,0-.074-.074-.074-.074-.192h.118c-.044-.56.31-.988.31-1.445.029,0,.074-.029.1-.029a4.339,4.339,0,0,1,.531-1.224c.074-1.327,1.607-2.006.767-3.643-.044-.044.029,0,.029-.074-2.581-1.947-2.079-.339-2.507-.236,0,.074-.029.118.044.162-.074.029-.074.074-.118.1-.029-.147-.029.074-.147,0,0,.118.029.236-.044.236-.029-.074.074-.118,0-.118-.192.044-.074.413-.339.31,0,.192.074.1-.074.147,0,.074.044.074.044.074-.088.044-.044.044-.162.044a30.238,30.238,0,0,1-2.05,2.463c0,.192-.192.265-.221.428.029,0,.029,0,.029.074-.192-.044-.221.147-.221.295-.044-.029-.044-.074-.074-.029-.546.87-1.15,1.666-1.637,2.537h-.118a9.046,9.046,0,0,1-1.784,2.242c0-.029,0-.074-.074-.074-.192.265-.5.354-.767.575a16.16,16.16,0,0,1,.767-4.454c-.074-.265.074-.339.1-.487-.029,0-.1,0-.1-.044.339-.944.678-1.888.988-2.876.487-.575.221-1.534-.31-2.286a2.242,2.242,0,0,1-.752-.5c-.162-.029-.693-.295-.767-.265-.147,0-.074.192-.192.265-.265-.147-.413.531-.56,1.15-.118.457-.31.87-.354,1.062.074,0,.118.029.162.118-.088.029-.162.029-.192.147.029.029.147.118.074.147-.074,0-.044-.074-.074-.074,0,.147.029.31-.074.339.029,0,.029.074.029.118h-.118c0,.074.088.044.088.118a.573.573,0,0,0-.236.339c.044.029.074-.074.118,0-.044.118-.265.221-.147.383-.265,0-.841,2.242-.723,2.61-.118,0-.118.088-.118.162,0,.118.074-.044.074.029-.074.162-.192.265-.044.428a1.611,1.611,0,0,1-.221.369c0,.118.118.044.118.162-.118.029-.044,0,0,.118-.192.029-.192.369-.162.442a2.957,2.957,0,0,0,.723,2.787c0,.1.044.147.088.265.413.1.531.634.87.87a2.566,2.566,0,0,0,2.773-.192,17.506,17.506,0,0,0,3.613-4.365,3.254,3.254,0,0,1-.074.752c.1-.029.147-.029.177.074-.029.044-.177-.029-.147.044.192.029.118.487,0,.457-.029-.074.118-.044.044-.147-.162.074-.118.6,0,.752-.162.044,0,.147.029.192-.074,1.829,1.563,3.112,2.891,3.731,0-.044,0-.088.044-.088.221.162.678.118.988.31.56-.147.988-.339,1.4-.413a2.446,2.446,0,0,1,.767-.354c0-.029-.044-.1,0-.147.678-.265.8-1.062,1.357-1.445a.675.675,0,0,1,.354-.487c0-.192.1-.162-.118-.118.029-.044,0-.118,0-.192.192-.118.678-.841.841-.944-.044,0-.088,0-.088-.044a8.318,8.318,0,0,1,1.15-2.02,1.2,1.2,0,0,1,.1-.6c-.029-.029-.029-.1-.029-.147-.147,0-.074.147-.192.147,0-.192.147-.221.221-.339,0,0-.029.118.044.147,0-.074,0-.147.074-.1,0-.118-.118-.044-.074-.162s.221-.339.118-.457a1.922,1.922,0,0,1,.413-.531,1.131,1.131,0,0,0-.118-.413c-.339.192-.413.649-.634.988-.428.575-.914,1.062-1.3,1.666a6.778,6.778,0,0,1-1.032,1.106c-.147.31-.826,1.327-1.136,1.4.31-.413.988-1.519,1.327-1.932a.573.573,0,0,0-.03-.221c.147.029.147-.088.1-.236a1.547,1.547,0,0,0,.767-.914c.074.074.339-.147.265-.383.118-.147.31-.221.339-.487.236-.221.6-.413.531-.8.118-.147.31-.31.339-.5l-.487.531h.118Zm-7.831-2.05c-.074,0-.044.118-.162.074-.029.811-.634,1.106-1.062,1.607-.634,1.018-1.327,2.006-1.932,3.067-.723.575-.87,1.681-1.9,1.976.074-.1.265-.221.192-.413.044.074.118.044.221-.044-.029-.029-.1-.029-.1,0-.118-.1.192-.074.074-.177.413-.236.457-.767.841-.988.029-.354.339-.457.413-.723.029,0,.029.029.074.029.074,0,0-.118,0-.147.147-.192.339-.31.383-.575.029,0,.029.044.074.044.383-1.032,1.18-1.711,1.563-2.7.177-.044.265-.118.265-.265.192.074.192-.383.339-.236.221-.295.531-.487.723-.8.074-.029-.044.192,0,.265h0Zm6.872,5.4a2.771,2.771,0,0,0-.8.914c-.118.044-.118-.044-.147-.044-.074.088-.575.914-.723.959.029-.236.723-.914.678-1.18a10.34,10.34,0,0,0,1.18-1.563,1.232,1.232,0,0,1,.5-.678c0,.044,0,.118.029.147.162,0,.118-.192.31-.192-.31.619-.87.959-1.032,1.637h0ZM133.3,25.545l.044.236a.707.707,0,0,0-.428.221c-.074.044-.118-.029-.147-.029,0-.044-.044-.088-.044-.162.074.044.118,0,.118-.1.236-.088.31-.31.531-.383,0,.029.074.118.118.029.074.118-.044.236-.192.192Zm-3.008.959v-.118c.088-.044.354.074.31-.044C130.675,26.46,130.38,26.43,130.291,26.5Zm-1.475-8.436c-.044.074-.074.147-.147.177C128.669,18.142,128.7,18.068,128.816,18.068Zm.988-.885c-.074,0,.029-.074,0-.1.074,0,.118.029.118,0,.1.074-.088.074-.118.1Zm7.182,3.008c0,.118-.147.029-.118.147C136.751,20.266,136.869,20.192,136.987,20.192Zm-6.961-3.466c.044.044-.029.162-.1.162C129.923,16.815,130,16.815,130.026,16.726Zm-.029.265c-.044-.1.029-.074.029-.1C130.114,16.889,130.07,16.992,130,16.992Zm.752,9.394v-.044h.192v.044Zm-1.254-8.775c0-.044-.029-.044-.029-.074h.1v.074Zm-.1.029c-.044,0-.044-.147.029-.147C129.465,17.611,129.392,17.567,129.392,17.641Zm.177-.147v-.118h.088C129.613,17.42,129.657,17.493,129.569,17.493Zm-5.353,7.3h-.074c0-.044-.044-.044-.044-.074-.029-.088.074.074.118.029-.044,0-.044.044,0,.044Zm3.731-4.454c-.088,0,0-.029-.044-.118C127.976,20.222,127.946,20.34,127.946,20.34Zm-7.152.192V20.5h.074v.029Zm3.421,4.188v0Zm25.808-11.179c-.192-.044-.265-.192-.383-.31a6.041,6.041,0,0,0-2.242-.369h-.31a3.346,3.346,0,0,0-.944.487,4.357,4.357,0,0,0-2.02,1.489c-.029-.044-.029-.118-.074-.088-.03.088,0,.192-.147.162-.044.029.044.147,0,.147s-.044-.044-.074-.044c.074.162-.074.088-.162.118,0,.074.044.044.088.074-.649.428-.841,1.062-1.445,1.519-.575.885-1.371,1.637-1.9,2.551-.044-.147,0-.192.03-.31.088-1.091.988-2.389.31-3.5a.4.4,0,0,0-.457-.413c0-.118-.118-.074-.118-.192-.339,0-.752-.192-1.062.044,0-.074-.074-.074-.074-.118-.118,0-.147.044-.31.044-.074.265-.531.295-.442.634.1,0,.177,0,.221.044-.044.074,0,.221-.118.265,0,.118.118,0,.074.118-.723,2.507-1.4,5.088-1.888,7.742.074.044.029.383-.088.531,0,.044.044.044.088.044a35.062,35.062,0,0,0-.811,4.557.85.85,0,0,0,.31.8s.914.619,1.062.575c.044.118.339.118.383.192.339-.044.531.074.767-.118-.162-1.519.752-2.433,1.091-3.643-.029-.044-.1,0-.1-.044.03-.029,0-.1.1-.1,0,.074-.074.147.044.1a.888.888,0,0,1,.295-.369,2.2,2.2,0,0,1,.546-1.3c-.088,0-.118.029-.118-.044a26.438,26.438,0,0,1,2.242-4.292c-.044-.074.029-.118,0-.192.841-1.254,1.932-2.271,2.846-3.5a9.036,9.036,0,0,1,3.731-2.817,1.25,1.25,0,0,0,.634.162c.811-.044.546-.265.428-.649Zm-6.076,2.625a7.577,7.577,0,0,0-1.489,1.858,4.117,4.117,0,0,0-1.209,1.563,5.243,5.243,0,0,0-.959,1.711c-.265.1-.192.457-.413.6-.044-.192-.192-.457.074-.575-.118-.487.31-1.062.575-1.475,0-.044-.044-.044-.088-.044a.638.638,0,0,0,.192-.383c.118,0,.118-.074.236-.074-.162-.074.118-.192.074-.339a.613.613,0,0,0,.221-.147c0-.044-.074,0-.074-.074.162-.044.162-.118.162-.236.339-.074.221-.413.56-.487a.2.2,0,0,1-.029-.118c.1-.044,0,0,.029.074.118-.044.118-.118.236-.118-.044-.192.1-.221.03-.413.118-.044.118-.147.265-.147a.2.2,0,0,1-.03-.118c.147,0,.1-.118.265-.118-.044-.118.192-.074.1-.265.118,0,.118.044.192.044a.226.226,0,0,0,0-.236c.162-.029.044-.221.236-.221v.074c.383-.147.678-.8,1.062-.988-.074-.074,0-.074-.044-.147a2.671,2.671,0,0,0,.885-.885l.826-.56c-.074-.074,0-.074,0-.162.162-.029.236-.074.265-.177.265-.118.723-.192.914-.428,0-.029,0,0,.044,0,.074.044.265-.029.339.044a9.444,9.444,0,0,0-3.451,2.964Zm2.153-1.593c-1.136.634-1.593,1.666-2.463,2.463-.5.649-.959,1.3-1.4,1.932h-.118l-1.371,2.138c0,.074.044.074.074.074-.03.029-.03.118-.147.118.03.074.074.192-.074.192,0,.074.03.029.03.1-.295.339-.413.8-.944.988a4.233,4.233,0,0,0,.752-1.327c.841-.988,1.106-2.315,2.33-3.112-.118-.31.192-.575.457-.767.029-.029.029-.074,0-.147,1.165-1.032,1.784-2.36,3.3-3.112-.044.221-.428.221-.428.457Zm-6.8,9.379c0-.413.236-.531.192-.914.147,0,.044-.118.192-.074-.044-.044-.074-.118-.044-.147h-.029c-.044-.236.339-.162.457-.31C139.877,23.038,139.8,23.687,139.3,23.953Zm-1.829.723c-.029.044-.074-.31,0-.339.088.029,0,.147.088.221C137.444,24.528,137.473,24.6,137.473,24.675Zm4.719-7.521c-.044.1-.074.192-.147.221C142.074,17.3,142.045,17.184,142.192,17.154Zm-4.336,3.687c-.147-.044,0-.118-.029-.192C137.975,20.649,137.827,20.767,137.857,20.841Zm3.952-3.348c.074-.044.074.044.118.118-.118-.044-.044.074-.147.074C141.779,17.611,141.883,17.611,141.809,17.493Zm-5.058,8.848c-.074.088-.03-.177.044-.177C136.869,26.121,136.721,26.312,136.751,26.342Zm5.973-9.763c-.044.044-.044.118-.118.118C142.576,16.623,142.65,16.579,142.723,16.579Zm-5.206,5.28v-.074c.044,0,.044,0,.044-.029C137.665,21.711,137.591,21.859,137.517,21.859Zm9.837-8.7c-.029-.029-.029-.029-.029-.074h.118s0,.044.029.044A.2.2,0,0,0,147.354,13.158Zm-9.615,7.875c0,.074,0-.118.088-.118C137.857,20.988,137.783,20.988,137.739,21.033Zm6.209-5.9c0,.044-.044.074-.118.074C143.829,15.178,143.859,15.178,143.947,15.134Zm-1.607,1.829v.074h-.029l-.044-.044C142.31,16.992,142.31,16.992,142.34,16.962Zm-4.7,6.341v-.029h.074V23.3Zm0-2.124h.029v.029c0,.044-.029.044-.029.044V21.18Zm-.265,3.879v-.044h.029l.044.044Zm.487-4.483v.029h-.03v-.029Zm1.858,2.2c-.03-.029-.03,0-.074.044C139.685,22.773,139.685,22.773,139.715,22.773Z" transform="translate(-76.743 -12.823)" fill="#513b62"/>
      <path id="Trazado_12326" data-name="Trazado 12326" d="M141.066,17.622v.088h-.074v-.044a.332.332,0,0,1-.236.118c-.029.074.118,0,.118.074-.074.118-.192.265-.295.147.074.236-.236.5-.265.265l-.354.31v.074h-.03V18.61l-.118.162c.118.029.044-.074.147-.044-.03.044.118.118,0,.118-.1.029-.03-.074-.147-.044,0,.192-.118.192-.221.236v.147c-.044-.029-.118.044-.118.118-.044.147-.044.221.074.265-.044.192-.265.192-.383.295.074,0,.044.118,0,.118.118.044.074-.118.162-.147.03.029.147-.044.147.029v.088c-.074.029-.192-.044-.192.029-.074.118-.147.649-.5.6-.03.088.118.118.044.162a.154.154,0,0,0-.192,0c0,.1.192.029.192.074,0,.074,0,.192-.074.192-.118-.044.074-.118-.074-.118-.118.074.029.074.029.147-.074-.029-.074-.029-.192,0,0,.088-.029.162.088.162.029,0,0-.074.029-.074.044.1-.074.1,0,.221-.221.044-.074.413-.295.383.029-.074.074-.074.074-.162-.192-.029-.074.265-.192.31.074,0,0,.118.074.074a.149.149,0,0,1,.044-.118c0,.044.029.044.074.088a3.631,3.631,0,0,0,.487,2.8c.265.265.457.767.841.841,1.9.383,2.05-.147,3.716-1.062l.959-.988c.678-.959,1.563-1.711,2.315-2.625-.03.118,0,.236-.118.236.044.678-.03,1.666.088,2.345.03,0,.074,0,.074.044-.074.029,0,.029-.044.147.457,2.006,2.124,3.23,4.631,2.935.811-.472,1.8-.708,1.976-1.74a2.315,2.315,0,0,0,.841-.959c-.03-.088-.118.074-.147,0,.074-.118.074-.088,0-.192a.589.589,0,0,0,.265-.428c.074,0,.074-.029.147-.029a1.023,1.023,0,0,1,.339-.575c.265-.678.723-1.548,1.032-2.271,0,0-.044.029-.044,0,0-.546.5-.914.354-1.416a3.891,3.891,0,0,1-.988,1.416c-.192.413-.31.87-.693,1.091a3.5,3.5,0,0,1-1.18,1.445c0-.029-.03-.029-.074-.029-.074.029.044.1-.029.147H153c-.029.074.044.221,0,.221-.265-.074-.339.428-.6.383a17.189,17.189,0,0,0,1.563-2.315c.487-.147.457-.8.826-.944.162-.31.31-.723.575-.811.044-.1-.118,0-.118-.074.118,0,0-.029,0-.074.074,0,.162-.339.044-.147,0-.192.118-.31.221-.236v-.192c.044.044.088.044.118-.029-.118.074-.118,0-.074-.074a.2.2,0,0,1-.265-.044c0,.074.074.118.074.192-1.032,1.711-2.315,3.156-3.451,4.749-.428.236-.575.693-1.106.841.029.147-.074.118-.192.118,0,.074,0,.1-.044.1s-.147.044-.1-.029c.221-.162.531-.339.56-.575.074-.029,0,.074.118.044,0-.162.074-.192.147-.192-.029-.162.074,0,.118-.118-.044,0-.118,0-.118-.074l.192-.118c-.295,0-.192.383-.487.339a.393.393,0,0,1-.31.31,2.223,2.223,0,0,1-1.327.767,6.448,6.448,0,0,1,.147-3.952l-.147-.118c0-.118.118-.074.074-.192h.118c0-.044.118-.192.029-.236-.029.044,0,.118-.074.088a.394.394,0,0,1,.236-.383c-.118-.044-.074-.8.221-.767,0-.074.118-.147,0-.192.044.088-.029.088-.074.118-.044-.265.339-.6.221-.841a10.928,10.928,0,0,0,1.18-2.389,1.66,1.66,0,0,1-.339-.8c-.383-.147-.6-.457-1.062-.5v-.1c-.5-.265-1.032-.885-1.711-1.032-.383-.074-.723-.029-1.032-.074-.339-.074-.723-.221-1.018-.074V13.6c-.265.118-.723.192-.87.383.03,0,.074,0,.03.044-.221-.044-.487.1-.487.295-.118-.029-.118.074-.192.074v-.074c-.074,0-.074.044-.162.044-.029.118.118,0,.118.074-.029.044-.029.074-.118.074v-.118c-.147,0-.369.192-.295.236-.074.074-.074,0-.192,0,0,.074-.221.118-.147.221a.142.142,0,0,1,.147-.1c0,.029.074,0,.074.074-.118,0-.147.029-.295.1-.044-.029-.044-.074-.118-.074-.074.044.074.118-.074.118-.088,0,0-.044-.044-.044a.258.258,0,0,1-.265.162c-.044.074-.118.118,0,.147-.044-.074.044-.074.074-.118,0,.162-.147.265-.221.236,0-.074.074-.044.074-.074-.044,0-.147-.044-.192.029.118.074-.074.074-.192.074l-.265.31c0,.074.044.074.074.118-.074.1-.383.192-.265.295-.118.044-.074-.1-.192-.029,0,.074.118.029.192.074.044-.074.118-.118.147-.236.044.044.118,0,.118.044-.192.31-.723.31-.752.678-.118,0-.162.118-.236.162-.074-.074.044-.162-.029-.162l-.118.162c.029,0,.074,0,.074.029.118.044.074-.074.147-.029-.03.074.074.1.074.029-.147,0,.118-.147.162-.029-.044.147-.31.1-.339.265-.088.029-.044-.074-.162-.044,0,.044-.074.044-.1.074-.044.118.1.044.1.118-.192,0-.03.044-.03.118l-.339.295h.029Zm7.565-1.711h-.118a9.948,9.948,0,0,1-.944,1.9c0,.044.03.044.074.044a22.288,22.288,0,0,1-2.551,3.377c-.487.044-.413.575-.723.767,0-.074.074-.074.074-.162a10.544,10.544,0,0,0-1.091.914.11.11,0,0,1-.044-.1c.044.074.074.029.118-.044-.044-.074-.118.044-.147,0-.044-.147.074-.044.1-.118.044,0,.044.074.044.074.074,0,.074-.074.147-.074-.074-.1-.118-.147-.074-.295.192-.162.457-.31.457-.531.118,0,.118.221,0,.265.074.029.221-.088.221-.236.118,0,.118-.147.192-.192,0-.074-.1-.029-.1-.074-.044.074.029.074.029.147-.029,0-.074,0-.074-.029h-.044c.088-.044,0-.118,0-.192.088-.074.162-.044.236-.147v-.044a.159.159,0,0,0,.029-.118c.118.192.236-.192.354,0,.029-.029.029-.192-.044-.147.044-.118.044-.074.044-.192.029,0-.044.118.074.074.074,0-.044-.029,0-.1.03,0,.03,0,.03-.044.118-.044.118.044.192.044a5.991,5.991,0,0,0,.885-1.15c-.118,0,.03-.265.147-.339.029,0,.029.074.029.118a.514.514,0,0,1,.162-.192c0-.074-.044.044-.118,0-.044-.147-.044-.236.044-.31.074,0,0,.044,0,.074.1-.029.177-.029.221-.147-.074-.029-.074.074-.192.044,0-.192.339-.074.31-.31.074.118.074,0,.192,0-.162-.074,0-.265.1-.339,0,.118-.074.147-.074.221a4.344,4.344,0,0,0,.531-.723c0-.1,0,.088-.1,0,.03-.147.147-.177.221-.295,0-.074-.074-.044-.118-.074,0-.044.074-.074.118-.118v.044c.147-.118.265-.28.383-.383.03,0,.03.192-.044.147.074.074.118-.118.162-.147-.162-.118.074-.265.074-.428-.074.044-.044.162-.118.162-.118-.074.118-.162.118-.265h.029c0-.074.074-.118.118-.192.044,0,.044.029.044.074.029,0,.029-.044.074-.044.03-.074-.044-.1,0-.192-.162.118-.162,0-.265.088,0,.029.03.029.03,0,.118.029,0,.074,0,.1a.029.029,0,0,1-.03-.029c-.044.029-.044.118-.074.221-.044.044-.044-.029-.044-.074-.074,0-.044.118-.118.074,0,.074.074.044.044.118-.074.044-.044.044-.147,0,.03.383-.546.723-.619,1.106-.029,0-.029-.044-.029-.074-.044.029-.074.074-.118.074-.074.413-.339.56-.5.87-.074-.044-.074-.074-.147.044,0,.029.074.029.074.029-.1.118-.192.339-.369.413a.191.191,0,0,1-.162.236c.044.074,0,.192.044.192a1.916,1.916,0,0,0-.767.944,1.616,1.616,0,0,0-.649.649,1.066,1.066,0,0,0-.339.457c-.147-.044-.295.147-.295.339a9.878,9.878,0,0,0-1.416,1.519c-.295.236-.723.339-.944.649-.044,0-.147.044-.147-.074a.455.455,0,0,1-.5.265c.074-.074.31-.074.339-.265.236.029.575-.339.885-.457,0-.147.413-.221.295-.531a.43.43,0,0,0-.221.265c-.162-.044-.162.074-.192.147-.236.118-.457.192-.531.457a4.087,4.087,0,0,0-1.062.5c-.044.029.03-.118-.088-.074.088-.118,0-.088,0-.236a20.407,20.407,0,0,1,2.551-4.557,1.227,1.227,0,0,0,.8-.914c.074,0,.044.074.118.074.044,0,0-.147,0-.192a.316.316,0,0,1,.265-.029c.531-1.032,1.784-1.372,2.551-2.138.147.088.221-.147.265,0,.074-.029-.044-.074.029-.1.383-.088.6-.31,1.032-.31,0,.074.118,0,.03.118.088,0,.118-.074.118-.192h.383c-.074.029-.044.118-.044.192.118,0,.192-.044.31,0,0,.029-.044.074,0,.1Zm-8.775,4.675c.1-.339.369-.531.457-.9q.664-.8,1.283-1.637h.074c-.029.531-.531.6-.678,1.018-.5.428-.678,1.106-1.136,1.519Zm2.773-3.451c0,.044,0,.044-.044.074v.044a3.373,3.373,0,0,1-.841.8,3.989,3.989,0,0,1,.811-.959c.03,0,.03.088.074.044h0Zm-1.15.221c.044.118-.442.5-.369.693-.074-.074-.31.118-.354.295-.147.044-.147.192-.295.236A14.9,14.9,0,0,1,141.479,17.357Zm-2.846,4.38c.265-.649.649-1.224.988-1.9a9.8,9.8,0,0,1-.988,1.9Zm.914-.31c-.147-.029-.118.074-.118.192-.074.044-.192.074-.147.221-.118-.147.044-.413.147-.487-.1-.044.118-.118.118-.221C139.621,21.206,139.547,21.353,139.547,21.427Zm8.023.044-.118-.236c.118-.074.118-.221.118-.339-.044-.074.118.044.074-.074.074.029,0,.192.118.192C147.57,21.088,147.717,21.353,147.57,21.471Zm-8.406.487v.118c-.029,0-.029,0-.029-.044a.043.043,0,0,1-.044.044h.044a.422.422,0,0,1-.118.31c-.147-.044,0-.192,0-.31h.044c0-.074.074-.074.1-.118a.113.113,0,0,1-.029-.074.11.11,0,0,0,.1-.044C139.282,21.884,139.238,22,139.164,21.958Zm3.923-5.28c0,.118-.162.074-.118.265-.147,0-.147.118-.265.147-.074-.074,0-.1,0-.192.192,0,.221-.177.383-.221Zm5.545-.944c-.044-.088.044-.162,0-.265.118.029.074-.088.221-.044A.557.557,0,0,1,148.632,15.734Zm-6,.9c-.074,0-.074-.029-.074-.1-.088.074-.118.192-.192.221-.044-.118,0-.074,0-.192.1.044.147-.029.147-.1A.166.166,0,0,1,142.629,16.634Zm-3.038,4.5c-.044-.192.074-.192.1-.31C139.813,20.9,139.695,21.132,139.592,21.132Zm.6-2.138a5.82,5.82,0,0,0-.428.723A1.2,1.2,0,0,1,140.2,18.994Zm7.86.723c-.147-.029,0,.074-.1.074,0-.265.147-.295.074-.457h.074c.03.192-.118.31-.044.383Zm-7.639,4.6c0-.147.265-.147.31-.192A.328.328,0,0,1,140.417,24.317Zm4.837-3.8c-.088-.029-.162-.029-.118-.1.118.029.029-.088.118-.118s.074.029.074.118C145.284,20.409,145.21,20.409,145.255,20.513Zm-5.56-1.254-.1.192c-.044,0-.044-.074-.088-.118C139.592,19.3,139.592,19.185,139.695,19.259Zm2.02-2.2h.074v.118c-.147-.044-.074.147-.221.1,0-.1.177-.074.147-.221Zm.118-.118c.147.044.03-.118.192-.074.029.118-.118.029-.118.147,0,.044.029.044.029.044,0,.074-.029-.044-.1,0Zm.9-1.445a.268.268,0,0,1,.162-.029c0,.029-.044.074-.044.1-.147-.029-.029.074-.118,0-.029,0-.029.044-.029.044-.118-.044.074-.044.029-.118h0Zm-.634,1.032v.1c-.118.044-.118-.147-.162,0C141.863,16.678,141.981,16.457,142.1,16.531Zm9.91,7.595c-.029-.118.074-.074.118-.118C152.2,24.052,152.127,24.17,152.009,24.126ZM148.4,15.572c.088,0,.118.044.118.118-.074.044-.147,0-.118-.074Zm-9.881,6.917c-.1-.074,0-.192,0-.295.088.074-.029.192,0,.295Zm3.053-4.97a.514.514,0,0,1-.162.192C141.45,17.622,141.45,17.519,141.568,17.519Zm.752-1.062h.074v.074c-.074,0-.074.074-.147.029C142.2,16.487,142.364,16.56,142.32,16.457ZM138.6,22.076c-.088.044-.088-.044-.088-.118.088.044.088,0,.088-.029.074-.088-.044.1,0,.147Zm7.02-2.168c-.074.044-.074,0-.074-.044-.029,0,0,.118-.118.088-.074.074.088-.044.088-.118.029,0,.029,0,.029.029.044,0,.074-.029.118-.029,0,.029-.074.029-.044.074Zm-1.209-5.427c-.044.147-.044.1-.147.074Zm3.539,5.383v.118h-.044v.044h-.044v-.118h.044v-.044Zm-7.226-1.475h.074c-.044.074-.044.147-.118.147-.029-.074.074-.029.044-.147Zm5.088,1.372c-.029,0-.029-.044-.074-.044-.03-.074.074-.029.074-.118C145.889,19.643,145.785,19.687,145.815,19.76Zm1.637,3.908c-.074,0-.118,0-.118-.074h.118Zm-4.719-7.86c.044.074-.029.074-.029.1-.044,0-.044-.074-.044-.1Zm-.6,1.062h.118c-.044.029-.044.118-.118.074Zm1.15,6.076c-.044-.029-.088-.029-.088,0-.074.044.044-.147.088-.074Zm-3.053-4.557h.088c.029.074-.044.074,0,.118,0,.1,0-.074-.088-.044Zm5.516,1.209c-.03,0,0-.1,0-.1.074,0,.074.029.118.029.029.074-.147-.029-.118.074Zm2.743-1.062H148.4v-.074h.088Zm3.908,5.25h-.118c.044,0,.044,0,.044-.074.029,0,.029,0,.074.029v.044Zm-5.324-6.046c.074,0,.074.044.074.074-.03,0-.03,0-.03.044-.044,0,0-.074-.044-.118Zm1.445.723c-.029-.029-.029-.074-.118-.074C148.44,18.315,148.558,18.389,148.514,18.463Zm-8.553.5c-.03.029-.03-.044-.074-.044C139.886,18.846,140,18.92,139.96,18.964Zm12.24,5.014c0-.074.044-.074.044-.118C152.274,23.86,152.274,24.008,152.2,23.978ZM145.977,19.3c-.088-.044,0-.147.074-.118C146.051,19.23,145.933,19.185,145.977,19.3Zm-6.238-.118h-.044v-.074h.074C139.768,19.156,139.739,19.156,139.739,19.185Zm-1.327,3.539v-.074C138.485,22.607,138.485,22.754,138.412,22.725Zm5.766-.457v-.074C144.266,22.15,144.266,22.3,144.178,22.268Zm2.787-4.218v-.074C147.039,17.932,147.039,18.079,146.965,18.05Zm-4.5-1.637c-.074,0-.029-.044,0-.044C142.467,16.369,142.438,16.413,142.467,16.413Zm-2.124,2.36v-.044h.044v.044Zm-.487,1.9h-.044v-.044h.044Zm1.888-2.6v.044h-.029v-.044Zm-1.43.767h-.044V18.8h.044Zm.029-.074V18.8h-.029v-.029Zm2.124-2.4c.044-.029.088-.029.044-.074C142.556,16.339,142.512,16.339,142.467,16.369Zm-1.932,1.607c0,.029.044.029.044.029C140.535,18.006,140.535,18.006,140.535,17.976Zm.5-.354-.044.044A.043.043,0,0,1,141.037,17.622Z" transform="translate(-67.904 -12.465)" fill="#513b62"/>
    </g>
    <path id="Trazado_12327" data-name="Trazado 12327" d="M3.112,19.871a2.5,2.5,0,0,0,.31.044c.147.015.295.015.442.015a1.821,1.821,0,0,0,1.268-.442,1.766,1.766,0,0,0,.487-1.372,2.282,2.282,0,0,0-.162-.9,1.384,1.384,0,0,0-.413-.6,1.6,1.6,0,0,0-.634-.31,3.092,3.092,0,0,0-.752-.088H3.407a1.976,1.976,0,0,0-.295.015ZM0,13.781c.28-.029.693-.088,1.268-.147a17.481,17.481,0,0,1,2.153-.1,10.822,10.822,0,0,1,1.932.177,5.178,5.178,0,0,1,1.755.678,3.728,3.728,0,0,1,1.268,1.386,4.943,4.943,0,0,1,.487,2.345,4.961,4.961,0,0,1-.4,2.124A3.543,3.543,0,0,1,7.447,21.6a3.988,3.988,0,0,1-1.46.723,7.092,7.092,0,0,1-1.681.206,5.45,5.45,0,0,1-.693-.029,2.718,2.718,0,0,1-.5-.059v4.2c-.31.059-.59.088-.841.118a6.074,6.074,0,0,1-.708.044A10.026,10.026,0,0,1,0,26.64V13.781ZM15.853,26.906a5.854,5.854,0,0,1-2.537-.5,4.455,4.455,0,0,1-1.77-1.386,6.322,6.322,0,0,1-1.032-2.094,10.108,10.108,0,0,1-.324-2.669,10.265,10.265,0,0,1,.324-2.669,6.2,6.2,0,0,1,1.032-2.124,4.658,4.658,0,0,1,1.77-1.416,5.851,5.851,0,0,1,2.537-.516,5.873,5.873,0,0,1,2.551.516,4.843,4.843,0,0,1,1.755,1.416,5.924,5.924,0,0,1,1.018,2.124,10.254,10.254,0,0,1,.339,2.669,10.091,10.091,0,0,1-.339,2.669,6.027,6.027,0,0,1-1.018,2.094A4.622,4.622,0,0,1,18.4,26.4,5.877,5.877,0,0,1,15.853,26.906Zm0-2.758c1.548,0,2.315-1.3,2.315-3.893s-.767-3.923-2.286-3.923c-1.563,0-2.345,1.313-2.345,3.923a6.079,6.079,0,0,0,.56,2.935A1.923,1.923,0,0,0,15.853,24.148ZM23.33,13.781c.457-.074.959-.133,1.489-.177s1.18-.074,1.888-.074a9.743,9.743,0,0,1,1.917.177,4.2,4.2,0,0,1,1.563.575,2.824,2.824,0,0,1,1.047,1.077A3.559,3.559,0,0,1,31.25,18.6a2.921,2.921,0,0,1-.959,1.062,3.9,3.9,0,0,1,.811.428,2.824,2.824,0,0,1,.678.649,2.754,2.754,0,0,1,.472.929,3.527,3.527,0,0,1,.192,1.239A3.9,3.9,0,0,1,32,24.871a3.139,3.139,0,0,1-1.18,1.224,5.291,5.291,0,0,1-1.8.634,13.649,13.649,0,0,1-2.271.177c-.649,0-1.224-.029-1.74-.074s-1.077-.1-1.681-.177V13.781Zm3.112,10.5c.088,0,.192.015.324.015a4.456,4.456,0,0,0,.487.015,3.69,3.69,0,0,0,.693-.074A2.17,2.17,0,0,0,28.58,24a1.443,1.443,0,0,0,.472-.472,1.58,1.58,0,0,0,.162-.752,1.281,1.281,0,0,0-.56-1.195,2.914,2.914,0,0,0-1.475-.324h-.737v3.023Zm.5-5.589a2.036,2.036,0,0,0,1.209-.31,1.24,1.24,0,0,0,.428-1.091,1.223,1.223,0,0,0-.147-.634,1.413,1.413,0,0,0-.383-.4,1.634,1.634,0,0,0-.531-.192,3.623,3.623,0,0,0-.546-.059h-.265a1.323,1.323,0,0,0-.265.029v2.655h.5Zm7.138-4.911c.324-.044.619-.088.885-.1a6.031,6.031,0,0,1,.693-.044,7,7,0,0,1,.737.044c.265.015.56.059.87.1V23.868h4.159c.059.295.088.56.118.782s.029.413.029.6-.015.413-.029.634-.059.487-.118.8H34.081v-12.9Zm11.872-.015c.324-.044.6-.074.885-.088a7.275,7.275,0,0,1,.811-.044,7.039,7.039,0,0,1,.752.044q.4.022.929.088L53.3,26.64a12.282,12.282,0,0,1-1.8.162,5.7,5.7,0,0,1-.708-.044c-.251-.029-.5-.059-.782-.1l-.678-2.507a9.073,9.073,0,0,1-.973.221,6.167,6.167,0,0,1-.9.074,5.746,5.746,0,0,1-.855-.074,7.429,7.429,0,0,1-.9-.177l-.664,2.463c-.28.044-.531.074-.752.1a5.367,5.367,0,0,1-.664.044,7.261,7.261,0,0,1-.752-.044c-.28-.044-.59-.088-.944-.147l4.026-12.845Zm1.607,3.377-1.209,4.631c.206.059.4.1.575.147a3.451,3.451,0,0,0,.56.044,4.023,4.023,0,0,0,.6-.044,5.9,5.9,0,0,0,.619-.133Zm6.917-3.362c.265-.044.5-.088.723-.1a4.374,4.374,0,0,1,.619-.044,5.414,5.414,0,0,1,.678.044c.236.029.442.074.6.1l4.174,7.064V13.781c.31-.044.59-.088.855-.1a5.792,5.792,0,0,1,.678-.044,5.141,5.141,0,0,1,.649.044,7.094,7.094,0,0,1,.723.1l-.029,12.86c-.118.029-.28.059-.516.1a5.535,5.535,0,0,1-.737.059,4.474,4.474,0,0,1-.811-.074c-.236-.044-.413-.074-.516-.088l-4.2-7.035V26.64a7.587,7.587,0,0,1-1.431.162,7.746,7.746,0,0,1-1.46-.162V13.781Zm14.895-.015c.324-.044.6-.074.885-.088a7.474,7.474,0,0,1,.811-.044,6.827,6.827,0,0,1,.752.044q.4.022.929.088L76.731,26.64a12.642,12.642,0,0,1-1.814.162,5.7,5.7,0,0,1-.708-.044c-.251-.029-.5-.059-.782-.1l-.678-2.507a9.073,9.073,0,0,1-.973.221,6.167,6.167,0,0,1-.9.074,5.746,5.746,0,0,1-.855-.074,8.028,8.028,0,0,1-.9-.177l-.664,2.463c-.265.044-.531.074-.752.1a5.367,5.367,0,0,1-.664.044,7.261,7.261,0,0,1-.752-.044c-.28-.044-.59-.088-.944-.147l4.026-12.845Zm1.607,3.377L69.77,21.774c.206.059.4.1.575.147a3.588,3.588,0,0,0,.56.044,4.023,4.023,0,0,0,.6-.044,4.643,4.643,0,0,0,.619-.133Z" transform="translate(0 6.423)" fill="#d76613"/>
    <g id="Grupo_980" data-name="Grupo 980" transform="translate(81.11)">
      <g id="D0OdIY" transform="translate(9.395 10.493)">
        <g id="Grupo_975" data-name="Grupo 975">
          <path id="Trazado_10168" data-name="Trazado 10168" d="M78.831,23.713a4.032,4.032,0,0,1,.634.383c.236.206.221.428-.029.649a1.047,1.047,0,0,1-.206.147,1.107,1.107,0,0,0-.59.988,1.808,1.808,0,0,0,.029.28c.044.31.088.619.118.929a.841.841,0,0,1,.015.192,1.108,1.108,0,0,1-.678,1.018,2.833,2.833,0,0,1-1.342.339,2.283,2.283,0,0,1-.324-.015A12.674,12.674,0,0,1,72.5,27.489a6.471,6.471,0,0,1-.752-.472c-.472-.324-.546-.295-.752.236a4.976,4.976,0,0,0-.236,1.475,4.555,4.555,0,0,0,.206,1.342,14.365,14.365,0,0,0,1.622,3.672,28.872,28.872,0,0,0,3.51,4.94c1.15,1.254,2.36,2.463,3.554,3.687a2.386,2.386,0,0,0,.28.265l-.029.088c-.251-.059-1,.693-1.976,1-5.5-2.448-9.32-7.241-11.223-10.456a33.2,33.2,0,0,1-3.23-7.241A41.516,41.516,0,0,1,61.37,13.007c0-.487,0-1,.015-1.5A52.392,52.392,0,0,0,77.15,7.122c0-.044-.059.133,0,0,.31.575.428.723.678,1.239a10.53,10.53,0,0,1,1.091,3.584c0,.1.015.192.015.295a3.308,3.308,0,0,1-.192,1.077,8.335,8.335,0,0,0-.383,1.313,2.46,2.46,0,0,0-.029.472,3.169,3.169,0,0,0,.619,1.873c.6.929,1.254,1.829,1.917,2.714.413.575.383.752-.265,1.062-.339.162-.693.28-1.018.442-.413.206-.516.354-.383.8a3.143,3.143,0,0,0,.442.855c.295.442.192.737-.339.811-.162.029-.324.029-.472.059Z" transform="translate(-61.37 -7.115)" fill="#c76488"/>
        </g>
      </g>
      <g id="D0OdIY-2" data-name="D0OdIY" transform="translate(9.543 10.714)">
        <g id="Grupo_976" data-name="Grupo 976">
          <path id="Trazado_10169" data-name="Trazado 10169" d="M78.813,23.76a3.456,3.456,0,0,1,.634.383c.251.206.221.428-.015.649-.074.044-.147.1-.221.147a1.117,1.117,0,0,0-.575.973.862.862,0,0,0,.029.28c.044.31.088.619.118.929,0,.059.015.133.015.192a1.073,1.073,0,0,1-.678,1,2.833,2.833,0,0,1-1.342.339,2.178,2.178,0,0,1-.31-.015,12.588,12.588,0,0,1-3.938-1.136,4.732,4.732,0,0,1-.737-.457c-.472-.324-.546-.295-.752.236a4.956,4.956,0,0,0-.236,1.46,4.555,4.555,0,0,0,.206,1.342,13.646,13.646,0,0,0,1.607,3.643,28,28,0,0,0,3.5,4.911c1.136,1.254,2.345,2.463,3.525,3.672.088.088.192.177.28.265l-.029.088c-.251-.059-1,.693-1.961,1-5.457-2.448-9.261-7.211-11.149-10.4a32.246,32.246,0,0,1-3.215-7.211A40.956,40.956,0,0,1,61.47,13.127c0-.5.015-1,.029-1.489A53.072,53.072,0,0,0,77.147,7.272h0c.31.56.428.723.678,1.224A10.115,10.115,0,0,1,78.9,12.065a1.976,1.976,0,0,1,.015.295,2.882,2.882,0,0,1-.192,1.062,10.7,10.7,0,0,0-.369,1.3,2.716,2.716,0,0,0-.044.487,3.076,3.076,0,0,0,.634,1.858c.59.914,1.239,1.814,1.888,2.7.428.56.4.752-.251,1.047-.339.162-.678.28-1.018.442-.413.206-.5.354-.383.782a3.229,3.229,0,0,0,.442.87c.31.428.192.723-.324.8-.162.029-.339.044-.487.059Z" transform="translate(-61.47 -7.265)" fill="#c76488"/>
        </g>
      </g>
      <g id="D0OdIY-3" data-name="D0OdIY" transform="translate(9.395 10.394)">
        <g id="Grupo_977" data-name="Grupo 977">
          <path id="Trazado_10170" data-name="Trazado 10170" d="M78.89,23.716a4.032,4.032,0,0,1,.634.383c.251.206.221.428-.015.649a1.921,1.921,0,0,1-.221.147,1.13,1.13,0,0,0-.59,1,2.016,2.016,0,0,0,.029.28c.044.31.088.6.118.914a.974.974,0,0,1,.015.206,1.108,1.108,0,0,1-.678,1.018,2.891,2.891,0,0,1-1.357.339,2.178,2.178,0,0,1-.31-.015,12.849,12.849,0,0,1-3.982-1.136,7.8,7.8,0,0,1-.737-.472c-.472-.324-.56-.31-.752.236a4.541,4.541,0,0,0-.236,1.475A4.714,4.714,0,0,0,71,30.1a14.128,14.128,0,0,0,1.637,3.672,27.734,27.734,0,0,0,3.525,4.955c1.15,1.268,2.36,2.478,3.554,3.716.088.088.192.162.28.251l-.029.088c-.251-.059-1,.708-1.976,1.018-5.516-2.463-9.35-7.27-11.267-10.5a32.625,32.625,0,0,1-3.23-7.256A41.123,41.123,0,0,1,61.37,12.965c0-.5,0-1,.015-1.5A52.714,52.714,0,0,0,77.194,7.051c.015-.029-.044.147,0,0,.324.575.428.737.693,1.254a10.609,10.609,0,0,1,1.091,3.6c0,.1.015.206.015.295a3.308,3.308,0,0,1-.192,1.077,8.334,8.334,0,0,0-.383,1.313,2.716,2.716,0,0,0-.044.487,3.087,3.087,0,0,0,.634,1.873c.6.929,1.268,1.829,1.917,2.728.428.575.4.752-.265,1.062-.339.162-.693.28-1.018.442-.413.206-.516.354-.383.8a3.229,3.229,0,0,0,.442.87c.31.442.206.737-.339.811a4.581,4.581,0,0,0-.472.059Z" transform="translate(-61.37 -7.048)" fill="url(#linear-gradient)"/>
        </g>
      </g>
      <g id="Grupo_979" data-name="Grupo 979">
        <g id="Grupo_978" data-name="Grupo 978">
          <path id="Trazado_10171" data-name="Trazado 10171" d="M79.923,50.023c-21.443-10.5-19.909-38.8-19.909-38.8C72.225,9.822,79.879,5.53,79.879,5.53c6.194,3.938,19.186,5.442,19.186,5.442,1.062,10.028-.841,17.756-3.79,23.6L98.4,37.945c4.174-7.477,7.005-17.653,5.575-31.132,0,0-16.281-1.888-24.053-6.813,0,0-9.586,5.383-24.894,7.138,0,0-1.932,35.468,24.953,48.622a36.122,36.122,0,0,0,7.138-4.542l-3.259-3.51a25.746,25.746,0,0,1-3.938,2.315h0Z" transform="translate(-54.999 0)" fill="#513b62"/>
        </g>
      </g>
      <circle id="Elipse_7947" data-name="Elipse 7947" cx="5.796" cy="5.796" r="5.796" transform="translate(32.829 39.597)" fill="#d76613"/>
    </g>
  </g>
</svg>
